<svg width="455" height="151" viewBox="0 0 455 151" fill="none" xmlns="http://www.w3.org/2000/svg">
<rect width="455" height="151" fill="white"/>
<path d="M74.5 33.5C74.5 47.3183 65.2227 57 55.5 57C45.7773 57 36.5 47.3183 36.5 33.5C36.5 19.6817 45.7773 10 55.5 10C65.2227 10 74.5 19.6817 74.5 33.5Z" stroke="black" stroke-width="10"/>
<rect x="5.5" y="35" width="100" height="108" rx="12" fill="#0E5AA6"/>
<circle cx="22.5" cy="81" r="6" fill="#FFFEFE"/>
<circle cx="47.5" cy="74" r="6" fill="white"/>
<path d="M74 67.4999C71.5 103.5 38.5 124.5 4 103.5V108.5V113C42.5 129.5 79 111.5 81 67.4999H74Z" fill="white"/>
<path d="M74 67.5C74.5 64 80.5 64 81 67.5L74 67.5Z" fill="#FFF8F8"/>
<path d="M185.104 136.152C185.104 139.8 183.888 142.808 181.456 145.176C179.024 147.608 175.984 148.824 172.336 148.824C164.656 148.824 158.16 146.232 152.848 141.048C147.6 135.928 144.976 129.528 144.976 121.848V110.52C144.976 109.56 144.464 109.08 143.44 109.08V115.032C143.44 118.68 142.224 121.688 139.792 124.056C137.36 126.488 134.32 127.704 130.672 127.704C127.024 127.704 123.984 126.488 121.552 124.056C119.184 121.688 118 118.68 118 115.032V49.944C118 46.296 119.184 43.256 121.552 40.824C123.984 38.392 127.024 37.176 130.672 37.176C134.32 37.176 137.36 38.392 139.792 40.824C142.224 43.256 143.44 46.296 143.44 49.944V65.304C145.04 59.608 149.072 56.76 155.536 56.76C159.184 56.76 162.224 57.976 164.656 60.408C167.088 62.776 168.304 65.784 168.304 69.432C168.304 71.416 168.112 73.304 167.728 75.096C168.112 76.376 168.304 77.688 168.304 79.032C168.304 82.04 167.856 84.888 166.96 87.576C169.264 91.544 170.416 95.992 170.416 100.92V112.248C170.416 113.272 170.928 113.784 171.952 113.784C175.728 113.784 178.864 114.968 181.36 117.336C183.856 119.768 185.104 122.84 185.104 126.552C185.104 128.216 184.816 129.816 184.24 131.352C184.816 132.824 185.104 134.424 185.104 136.152ZM178.864 126.552C178.864 124.632 178.256 123.064 177.04 121.848C175.824 120.632 174.256 120.024 172.336 120.024H171.952C169.776 120.024 167.92 119.256 166.384 117.72C164.912 116.248 164.176 114.424 164.176 112.248V100.92C164.176 94.008 161.36 88.472 155.728 84.312C159.952 80.216 162.064 75.256 162.064 69.432C162.064 67.512 161.456 65.976 160.24 64.824C159.024 63.608 157.456 63 155.536 63C151.248 63 149.104 65.208 149.104 69.624C149.104 71.736 148.336 73.56 146.8 75.096C145.264 76.568 143.44 77.272 141.328 77.208L137.2 77.112V49.944C137.2 48.024 136.592 46.456 135.376 45.24C134.16 44.024 132.592 43.416 130.672 43.416C128.752 43.416 127.184 44.024 125.968 45.24C124.816 46.456 124.24 48.024 124.24 49.944V105.432C124.24 107.352 124.816 108.92 125.968 110.136C127.184 111.288 128.752 111.864 130.672 111.864C132.592 111.864 134.16 111.288 135.376 110.136C136.592 108.92 137.2 107.352 137.2 105.432V93.24H143.44C145.616 93.24 147.44 93.976 148.912 95.448C150.448 96.92 151.216 98.744 151.216 100.92V112.248C151.216 118.136 153.2 123.064 157.168 127.032C161.136 131 166.064 132.984 171.952 132.984H172.336C174.256 132.984 175.824 132.376 177.04 131.16C178.256 130.008 178.864 128.472 178.864 126.552ZM223.674 115.032C223.674 118.68 222.426 121.688 219.93 124.056C217.498 126.488 214.49 127.704 210.906 127.704C207.322 127.704 204.346 126.552 201.978 124.248C199.546 126.68 196.506 127.896 192.858 127.896C184.154 127.896 176.858 124.92 170.97 118.968C165.082 113.08 162.138 105.784 162.138 97.08C162.138 95.48 162.266 93.88 162.522 92.28C162.266 90.68 162.138 89.08 162.138 87.48C162.138 78.776 165.082 71.48 170.97 65.592C176.858 59.704 184.154 56.76 192.858 56.76C201.562 56.76 208.858 59.736 214.746 65.688C220.698 71.576 223.674 78.84 223.674 87.48V115.032ZM217.434 105.432V87.48C217.434 80.504 215.066 74.68 210.33 70.008C205.658 65.336 199.834 63 192.858 63C185.882 63 180.058 65.336 175.386 70.008C170.714 74.68 168.378 80.504 168.378 87.48C168.378 94.456 170.714 100.312 175.386 105.048C180.058 109.72 185.882 112.056 192.858 112.056C194.778 112.056 196.346 111.448 197.562 110.232C198.778 109.016 199.386 107.448 199.386 105.528C199.386 103.608 198.778 102.072 197.562 100.92C196.346 99.704 194.778 99.096 192.858 99.096C189.658 99.096 186.938 97.976 184.698 95.736C182.458 93.432 181.338 90.68 181.338 87.48C181.338 84.28 182.458 81.56 184.698 79.32C186.938 77.08 189.658 75.96 192.858 75.96C196.058 75.96 198.778 77.08 201.018 79.32C203.322 81.56 204.474 84.28 204.474 87.48V105.432C204.474 107.352 205.05 108.92 206.202 110.136C207.418 111.288 208.986 111.864 210.906 111.864C212.826 111.864 214.394 111.288 215.61 110.136C216.826 108.92 217.434 107.352 217.434 105.432ZM196.794 93.432C195.706 92.344 194.394 91.8 192.858 91.8C192.026 91.8 191.258 91.96 190.554 92.28C191.194 92.6 192.186 92.824 193.53 92.952C195.13 93.08 196.218 93.24 196.794 93.432ZM311.262 136.152C311.262 139.8 310.046 142.808 307.614 145.176C305.182 147.608 302.142 148.824 298.494 148.824C290.814 148.824 284.318 146.232 279.006 141.048C273.758 135.928 271.134 129.528 271.134 121.848V93.24C271.134 92.28 270.686 91.8 269.79 91.8V115.032C269.79 118.68 268.574 121.688 266.142 124.056C263.71 126.488 260.67 127.704 257.022 127.704C253.374 127.704 250.334 126.488 247.902 124.056C245.534 121.688 244.35 118.68 244.35 115.032V93.24C244.35 92.28 243.838 91.8 242.814 91.8C241.79 91.8 241.278 92.28 241.278 93.24V115.032C241.278 118.68 240.062 121.688 237.63 124.056C235.262 126.488 232.254 127.704 228.606 127.704C224.958 127.704 221.918 126.488 219.486 124.056C217.054 121.688 215.838 118.68 215.838 115.032V83.64C215.838 76.088 218.43 69.72 223.614 64.536C228.862 59.352 235.262 56.76 242.814 56.76C247.678 56.76 252.158 57.944 256.254 60.312C260.286 57.944 264.766 56.76 269.694 56.76C277.246 56.76 283.614 59.352 288.798 64.536C293.982 69.72 296.574 76.088 296.574 83.64V112.248C296.574 113.272 297.086 113.784 298.11 113.784C301.886 113.784 305.022 114.968 307.518 117.336C310.014 119.768 311.262 122.84 311.262 126.552C311.262 128.216 310.974 129.816 310.398 131.352C310.974 132.824 311.262 134.424 311.262 136.152ZM305.022 126.552C305.022 124.632 304.414 123.064 303.198 121.848C301.982 120.632 300.414 120.024 298.494 120.024H298.11C295.934 120.024 294.078 119.256 292.542 117.72C291.07 116.248 290.334 114.424 290.334 112.248V83.64C290.334 77.752 288.35 72.856 284.382 68.952C280.478 64.984 275.582 63 269.694 63C264.574 63 260.094 64.632 256.254 67.896C252.35 64.632 247.87 63 242.814 63C236.926 63 231.998 64.984 228.03 68.952C224.062 72.856 222.078 77.752 222.078 83.64V105.432C222.078 107.352 222.686 108.92 223.902 110.136C225.118 111.288 226.686 111.864 228.606 111.864C230.526 111.864 232.062 111.288 233.214 110.136C234.43 108.92 235.038 107.352 235.038 105.432V83.64C235.038 81.464 235.774 79.64 237.246 78.168C238.782 76.696 240.638 75.96 242.814 75.96C244.926 75.96 246.75 76.728 248.286 78.264C249.822 79.736 250.59 81.528 250.59 83.64V105.432C250.59 107.352 251.166 108.92 252.318 110.136C253.534 111.288 255.102 111.864 257.022 111.864C258.942 111.864 260.51 111.288 261.726 110.136C262.942 108.92 263.55 107.352 263.55 105.432V78.936C265.086 76.952 267.134 75.96 269.694 75.96C271.806 75.96 273.598 76.728 275.07 78.264C276.606 79.736 277.374 81.528 277.374 83.64V112.248C277.374 118.136 279.358 123.064 283.326 127.032C287.294 131 292.222 132.984 298.11 132.984H298.494C300.414 132.984 301.982 132.376 303.198 131.16C304.414 130.008 305.022 128.472 305.022 126.552ZM350.105 96.984C350.105 105.56 347.097 112.824 341.081 118.776C335.129 124.728 327.865 127.704 319.289 127.704C310.649 127.704 303.353 124.728 297.401 118.776C291.513 112.888 288.569 105.624 288.569 96.984V49.752C288.569 46.168 289.785 43.16 292.217 40.728C294.649 38.296 297.657 37.08 301.241 37.08C304.889 37.08 307.929 38.296 310.361 40.728C312.793 43.096 314.009 46.104 314.009 49.752V57.624C315.673 56.92 317.433 56.568 319.289 56.568C327.993 56.568 335.289 59.544 341.177 65.496C347.129 71.384 350.105 78.68 350.105 87.384C350.105 89.048 349.977 90.648 349.721 92.184C349.977 93.784 350.105 95.384 350.105 96.984ZM343.865 87.384C343.865 80.408 341.497 74.584 336.761 69.912C332.089 65.176 326.265 62.808 319.289 62.808C317.369 62.808 315.801 63.416 314.585 64.632C313.433 65.848 312.857 67.416 312.857 69.336C312.857 71.256 313.433 72.824 314.585 74.04C315.801 75.192 317.369 75.768 319.289 75.768C322.489 75.768 325.209 76.92 327.449 79.224C329.753 81.464 330.905 84.184 330.905 87.384C330.905 90.584 329.753 93.304 327.449 95.544C325.209 97.784 322.489 98.904 319.289 98.904C316.089 98.904 313.369 97.784 311.129 95.544C308.889 93.304 307.769 90.584 307.769 87.384V49.752C307.769 47.832 307.161 46.296 305.945 45.144C304.729 43.928 303.161 43.32 301.241 43.32C299.385 43.32 297.849 43.928 296.633 45.144C295.417 46.36 294.809 47.896 294.809 49.752V87.384C294.809 94.296 297.145 100.12 301.817 104.856C306.553 109.528 312.377 111.864 319.289 111.864C326.201 111.864 332.025 109.528 336.761 104.856C341.497 100.12 343.865 94.296 343.865 87.384ZM321.689 92.184C320.985 91.864 319.961 91.64 318.617 91.512C317.081 91.384 316.025 91.224 315.449 91.032C316.473 92.12 317.753 92.664 319.289 92.664C320.121 92.664 320.921 92.504 321.689 92.184ZM403.43 115.032C403.43 118.68 402.182 121.688 399.686 124.056C397.254 126.488 394.246 127.704 390.662 127.704C387.078 127.704 384.102 126.552 381.734 124.248C379.302 126.68 376.262 127.896 372.614 127.896C363.91 127.896 356.614 124.92 350.726 118.968C344.838 113.08 341.894 105.784 341.894 97.08C341.894 95.48 342.022 93.88 342.278 92.28C342.022 90.68 341.894 89.08 341.894 87.48C341.894 78.776 344.838 71.48 350.726 65.592C356.614 59.704 363.91 56.76 372.614 56.76C381.318 56.76 388.614 59.736 394.502 65.688C400.454 71.576 403.43 78.84 403.43 87.48V115.032ZM397.19 105.432V87.48C397.19 80.504 394.822 74.68 390.086 70.008C385.414 65.336 379.59 63 372.614 63C365.638 63 359.814 65.336 355.142 70.008C350.47 74.68 348.134 80.504 348.134 87.48C348.134 94.456 350.47 100.312 355.142 105.048C359.814 109.72 365.638 112.056 372.614 112.056C374.534 112.056 376.102 111.448 377.318 110.232C378.534 109.016 379.142 107.448 379.142 105.528C379.142 103.608 378.534 102.072 377.318 100.92C376.102 99.704 374.534 99.096 372.614 99.096C369.414 99.096 366.694 97.976 364.454 95.736C362.214 93.432 361.094 90.68 361.094 87.48C361.094 84.28 362.214 81.56 364.454 79.32C366.694 77.08 369.414 75.96 372.614 75.96C375.814 75.96 378.534 77.08 380.774 79.32C383.078 81.56 384.23 84.28 384.23 87.48V105.432C384.23 107.352 384.806 108.92 385.958 110.136C387.174 111.288 388.742 111.864 390.662 111.864C392.582 111.864 394.15 111.288 395.366 110.136C396.582 108.92 397.19 107.352 397.19 105.432ZM376.55 93.432C375.462 92.344 374.15 91.8 372.614 91.8C371.782 91.8 371.014 91.96 370.31 92.28C370.95 92.6 371.942 92.824 373.286 92.952C374.886 93.08 375.974 93.24 376.55 93.432ZM449.45 121.848C449.45 129.4 446.826 135.768 441.578 140.952C436.394 146.2 430.026 148.824 422.474 148.824C418.698 148.824 415.562 147.64 413.066 145.272C410.57 142.904 409.322 139.864 409.322 136.152C409.322 134.488 409.61 132.888 410.186 131.352C409.61 129.88 409.322 128.28 409.322 126.552C409.322 125.848 409.386 125.176 409.514 124.536C405.226 122.232 401.834 118.968 399.338 114.744C396.842 110.584 395.594 105.912 395.594 100.728V69.432C395.594 65.784 396.778 62.776 399.146 60.408C401.578 57.976 404.618 56.76 408.266 56.76C412.17 56.76 415.274 57.912 417.578 60.216C419.882 62.456 421.034 65.528 421.034 69.432V91.128C421.034 92.152 421.546 92.664 422.57 92.664C423.53 92.664 424.01 92.152 424.01 91.128V69.432C424.01 65.784 425.226 62.776 427.658 60.408C430.09 57.976 433.13 56.76 436.778 56.76C440.426 56.76 443.434 57.976 445.802 60.408C448.234 62.776 449.45 65.784 449.45 69.432V121.848ZM443.21 112.248V69.432C443.21 67.512 442.602 65.976 441.386 64.824C440.234 63.608 438.698 63 436.778 63C434.858 63 433.29 63.608 432.074 64.824C430.858 65.976 430.25 67.512 430.25 69.432V91.128C430.25 93.304 429.514 95.16 428.042 96.696C426.57 98.168 424.746 98.904 422.57 98.904C420.394 98.904 418.538 98.168 417.002 96.696C415.53 95.16 414.794 93.304 414.794 91.128V69.432C414.794 65.144 412.618 63 408.266 63C406.346 63 404.778 63.608 403.562 64.824C402.41 65.976 401.834 67.512 401.834 69.432V91.128C401.834 97.08 403.786 102.04 407.69 106.008C411.658 109.912 416.618 111.864 422.57 111.864C425.258 111.864 427.818 111.384 430.25 110.424V112.248C430.25 114.36 429.482 116.184 427.946 117.72C426.41 119.256 424.586 120.024 422.474 120.024H422.09C420.17 120.024 418.602 120.632 417.386 121.848C416.17 123.064 415.562 124.632 415.562 126.552C415.562 128.472 416.17 130.008 417.386 131.16C418.602 132.376 420.17 132.984 422.09 132.984H422.474C428.362 132.984 433.29 131 437.258 127.032C441.226 123.064 443.21 118.136 443.21 112.248Z" fill="black"/>
</svg>
